<mxfile host="app.diagrams.net" modified="2024-02-18T05:17:24.249Z" agent="Mozilla/5.0 (Macintosh; Intel Mac OS X 10_15_7) AppleWebKit/537.36 (KHTML, like Gecko) Chrome/120.0.0.0 Safari/537.36" etag="glwj24OmetDp3BY5Pp6V" version="23.1.5" type="device">
  <diagram name="Page-1" id="6Xa8jeqGYxPdat6dihNt">
    <mxGraphModel dx="996" dy="521" grid="1" gridSize="10" guides="1" tooltips="1" connect="1" arrows="1" fold="1" page="1" pageScale="1" pageWidth="850" pageHeight="1100" math="0" shadow="0">
      <root>
        <mxCell id="0" />
        <mxCell id="1" parent="0" />
        <mxCell id="qnHMBgAN_SZ4clb90AmF-8" style="edgeStyle=orthogonalEdgeStyle;rounded=0;orthogonalLoop=1;jettySize=auto;html=1;entryX=0.5;entryY=0;entryDx=0;entryDy=0;" edge="1" parent="1" source="qnHMBgAN_SZ4clb90AmF-1" target="qnHMBgAN_SZ4clb90AmF-2">
          <mxGeometry relative="1" as="geometry" />
        </mxCell>
        <mxCell id="qnHMBgAN_SZ4clb90AmF-9" style="edgeStyle=orthogonalEdgeStyle;rounded=0;orthogonalLoop=1;jettySize=auto;html=1;entryX=0.5;entryY=0;entryDx=0;entryDy=0;" edge="1" parent="1" source="qnHMBgAN_SZ4clb90AmF-1" target="qnHMBgAN_SZ4clb90AmF-3">
          <mxGeometry relative="1" as="geometry" />
        </mxCell>
        <mxCell id="qnHMBgAN_SZ4clb90AmF-1" value="App" style="rounded=1;whiteSpace=wrap;html=1;" vertex="1" parent="1">
          <mxGeometry x="420" y="160" width="120" height="50" as="geometry" />
        </mxCell>
        <mxCell id="qnHMBgAN_SZ4clb90AmF-6" style="edgeStyle=orthogonalEdgeStyle;rounded=0;orthogonalLoop=1;jettySize=auto;html=1;entryX=0.5;entryY=0;entryDx=0;entryDy=0;" edge="1" parent="1" source="qnHMBgAN_SZ4clb90AmF-2" target="qnHMBgAN_SZ4clb90AmF-4">
          <mxGeometry relative="1" as="geometry" />
        </mxCell>
        <mxCell id="qnHMBgAN_SZ4clb90AmF-7" style="edgeStyle=orthogonalEdgeStyle;rounded=0;orthogonalLoop=1;jettySize=auto;html=1;exitX=0.5;exitY=1;exitDx=0;exitDy=0;" edge="1" parent="1" source="qnHMBgAN_SZ4clb90AmF-2" target="qnHMBgAN_SZ4clb90AmF-5">
          <mxGeometry relative="1" as="geometry" />
        </mxCell>
        <mxCell id="qnHMBgAN_SZ4clb90AmF-2" value="CampsiteList" style="rounded=1;whiteSpace=wrap;html=1;fillColor=#f8cecc;strokeColor=#b85450;" vertex="1" parent="1">
          <mxGeometry x="220" y="300" width="120" height="50" as="geometry" />
        </mxCell>
        <mxCell id="qnHMBgAN_SZ4clb90AmF-3" value="Title" style="rounded=1;whiteSpace=wrap;html=1;" vertex="1" parent="1">
          <mxGeometry x="610" y="295" width="120" height="60" as="geometry" />
        </mxCell>
        <mxCell id="qnHMBgAN_SZ4clb90AmF-4" value="CampsiteListItem" style="rounded=1;whiteSpace=wrap;html=1;fillColor=#dae8fc;strokeColor=#6c8ebf;" vertex="1" parent="1">
          <mxGeometry x="150" y="430" width="120" height="60" as="geometry" />
        </mxCell>
        <mxCell id="qnHMBgAN_SZ4clb90AmF-5" value="CampsiteListItem" style="rounded=1;whiteSpace=wrap;html=1;fillColor=#dae8fc;strokeColor=#6c8ebf;" vertex="1" parent="1">
          <mxGeometry x="305" y="430" width="120" height="60" as="geometry" />
        </mxCell>
      </root>
    </mxGraphModel>
  </diagram>
</mxfile>
